<svg width="26" height="26" viewBox="0 0 26 26" fill="none" xmlns="http://www.w3.org/2000/svg">
<path d="M22.75 6.42392C19.955 6.14892 17.1433 6.00558 14.34 6.00558C12.6667 6.00558 10.9933 6.09059 9.32 6.26059L7.58333 6.42392" stroke="#F2F5F9" stroke-width="1.6" stroke-linecap="round" stroke-linejoin="round"/>
<path d="M12.4525 5.53147L12.6392 4.41564C12.7758 3.59647 12.8792 2.97564 14.3417 2.97564H16.325C17.7875 2.97564 17.9 3.63147 18.0275 4.42481L18.2142 5.53147" stroke="#F2F5F9" stroke-width="1.6" stroke-linecap="round" stroke-linejoin="round"/>
<path d="M21.2942 9.94395L20.7042 18.984C20.6025 20.334 20.5175 21.3757 18.1508 21.3757H12.515C10.1483 21.3757 10.0633 20.334 9.96166 18.984L9.37166 9.94395" stroke="#F2F5F9" stroke-width="1.6" stroke-linecap="round" stroke-linejoin="round"/>
<path d="M13.3225 16.2507H17.3308" stroke="#F2F5F9" stroke-width="1.6" stroke-linecap="round" stroke-linejoin="round"/>
<path d="M12.3125 12.417H18.3542" stroke="#F2F5F9" stroke-width="1.6" stroke-linecap="round" stroke-linejoin="round"/>
</svg>
